<svg width="115" height="79" viewBox="0 0 115 79" fill="none" xmlns="http://www.w3.org/2000/svg">
<g clip-path="url(#clip0_132_598)">
<path d="M113.469 36.0171L94.8651 8.94969C94.5579 8.50898 94.1496 8.14859 93.6745 7.89885C93.1993 7.64911 92.6713 7.51731 92.1347 7.51453H75.6371V3.29461C75.6371 2.42422 75.292 1.58949 74.6777 0.974032C74.0633 0.358577 73.2301 0.0128174 72.3613 0.0128174H3.26929C2.40222 0.0128174 1.57066 0.357883 0.957552 0.972104C0.344442 1.58632 0 2.41939 0 3.28803L0 64.3912C0 65.54 0.929857 66.4716 2.07657 66.4781H11.8779V66.2839C11.8779 62.4593 13.3944 58.7913 16.094 56.0869C18.7935 53.3825 22.4549 51.8631 26.2726 51.8631C30.0903 51.8631 33.7516 53.3825 36.4512 56.0869C39.1507 58.7913 40.6673 62.4593 40.6673 66.2839V66.488V66.4781H63.8809V66.2839C63.8809 62.4593 65.3974 58.7913 68.097 56.0869C70.7965 53.3825 74.4579 51.8631 78.2756 51.8631C82.0933 51.8631 85.7546 53.3825 88.4542 56.0869C91.1537 58.7913 92.6703 62.4593 92.6703 66.2839V66.488V66.4781H112.329C112.88 66.4764 113.408 66.2558 113.797 65.8646C114.187 65.4734 114.405 64.9436 114.405 64.3912V38.8479C114.37 37.8264 114.044 36.8362 113.466 35.994L113.479 36.0138L113.469 36.0171ZM50.1071 28.4298H41.2423V37.3074H33.1989V28.4397H24.334V20.3751H33.1989V11.4645H41.2423V20.3421H50.1071V28.4298ZM108.931 36.9552C108.869 37.0711 108.777 37.168 108.664 37.2352C108.551 37.3025 108.422 37.3377 108.291 37.337H75.6437V11.4612H90.2684C90.7604 11.4635 91.2448 11.5832 91.6813 11.8105C92.1179 12.0378 92.4941 12.366 92.7787 12.768L92.7853 12.7779L108.905 36.2146C108.977 36.3186 109.018 36.441 109.023 36.5674C109.028 36.6939 108.998 36.8192 108.935 36.9289L108.938 36.9256L108.931 36.9552Z" fill="#0085FF"/>
<path d="M26.2398 54.0294C23.7743 54.0294 21.3608 54.7619 19.3108 56.1342C17.2608 57.5064 15.663 59.4569 14.7194 61.7389C13.7759 64.0209 13.529 66.5319 14.01 68.9544C14.491 71.377 15.6783 73.6022 17.4217 75.3488C19.1651 77.0954 21.3864 78.2848 23.8045 78.7667C26.2227 79.2485 28.7292 79.0012 31.007 78.056C33.2849 77.1108 35.2318 75.5101 36.6016 73.4563C37.9714 71.4026 38.7025 68.988 38.7025 66.518V66.5082C38.6999 63.1983 37.3858 60.0248 35.049 57.6849C32.7122 55.3451 29.5437 54.0303 26.2398 54.0294ZM26.2398 70.761C25.4008 70.761 24.5807 70.5118 23.8832 70.0448C23.1856 69.5779 22.6419 68.9142 22.3208 68.1377C21.9998 67.3612 21.9158 66.5067 22.0794 65.6824C22.2431 64.8581 22.6471 64.1009 23.2404 63.5066C23.8336 62.9123 24.5894 62.5075 25.4123 62.3436C26.2351 62.1796 27.088 62.2637 27.8631 62.5854C28.6382 62.907 29.3007 63.4517 29.7668 64.1505C30.2329 64.8494 30.4817 65.671 30.4817 66.5115V66.5147C30.4817 67.6409 30.0351 68.721 29.2402 69.5173C28.4453 70.3136 27.3639 70.761 26.2398 70.761ZM78.2494 54.0294H78.2461C75.7805 54.0294 73.3704 54.7619 71.3204 56.1342C69.2703 57.5064 67.6725 59.4569 66.729 61.7389C65.7855 64.0209 65.5386 66.5319 66.0196 68.9544C66.5006 71.377 67.6879 73.6022 69.4313 75.3488C71.1747 77.0954 73.3959 78.2848 75.8141 78.7667C78.2323 79.2485 80.7388 79.0012 83.0166 78.056C85.2945 77.1108 87.2414 75.5101 88.6112 73.4563C89.981 71.4026 90.7121 68.988 90.7121 66.518V66.5082C90.7095 63.1983 89.3954 60.0248 87.0586 57.6849C84.7217 55.3451 81.5533 54.0303 78.2494 54.0294ZM78.2494 70.761C77.4104 70.761 76.5903 70.5118 75.8927 70.0448C75.1952 69.5779 74.6515 68.9142 74.3304 68.1377C74.0093 67.3612 73.9254 66.5067 74.089 65.6824C74.2527 64.8581 74.6567 64.1009 75.2499 63.5066C75.8432 62.9123 76.599 62.5075 77.4218 62.3436C78.2447 62.1796 79.0976 62.2637 79.8727 62.5854C80.6478 62.907 81.3102 63.4517 81.7764 64.1505C82.2425 64.8494 82.4912 65.671 82.4912 66.5115V66.5147C82.4912 67.6409 82.0447 68.721 81.2498 69.5173C80.4549 70.3136 79.3735 70.761 78.2494 70.761ZM88.0769 6.35295V4.00928C88.1263 3.44209 87.9537 2.87789 87.5957 2.43572C87.2377 1.99354 86.7222 1.70798 86.1581 1.63928H82.4682C81.898 1.69989 81.3749 1.98431 81.0134 2.43031C80.652 2.87632 80.4816 3.4476 80.5395 4.01916V4.00928V6.35295H88.0769Z" fill="#0085FF"/>
</g>
<defs>
<clipPath id="clip0_132_598">
<rect width="115" height="79" fill="white"/>
</clipPath>
</defs>
</svg>
