<svg width="101" height="101" viewBox="0 0 101 101" fill="none" xmlns="http://www.w3.org/2000/svg">
<g clip-path="url(#clip0_132_572)">
<path d="M50.6832 24.9549C43.6889 24.9549 38.0093 19.3241 38.0093 12.382C38.0093 5.44138 43.6889 -0.186218 50.6832 -0.186218C57.679 -0.186218 63.3555 5.44138 63.3555 12.382C63.3555 19.3241 57.679 24.9549 50.6832 24.9549ZM84.9869 83.5601C82.1494 84.3745 79.2472 82.9463 78.5024 80.3455L68.8001 46.4742L64.0688 46.4679L79.5739 100.512H21.7956L37.3038 46.4679L32.5647 46.4742L22.8656 80.3455C22.1191 82.9463 19.2154 84.3745 16.3842 83.5601C13.5452 82.7458 11.7524 80.2666 12.7056 77.0188L22.6841 42.2653C26.6704 28.3763 38.2981 28.8103 38.2981 28.8103H63.0762C63.0762 28.8103 74.7007 28.3763 78.6917 42.2653L88.6671 77.0188C89.6218 80.2666 87.8275 82.7458 84.99 83.5601H84.9869ZM50.6879 59.8346C40.337 59.8346 31.9493 68.216 31.9493 78.5685C31.9493 88.9131 40.337 97.304 50.6879 97.304C61.0278 97.304 69.4171 88.9147 69.4171 78.5685C69.4171 68.216 61.0309 59.8346 50.6879 59.8346ZM54.7137 74.0078C54.1787 73.7556 53.6986 73.4003 53.3012 72.9622C52.9037 72.5242 52.5967 72.012 52.3976 71.455C52.1985 70.898 52.1113 70.3072 52.141 69.7165C52.1707 69.1257 52.3167 68.5467 52.5706 68.0125C53.0827 66.9352 54.0013 66.1052 55.1247 65.7046C56.2481 65.304 57.4846 65.3655 58.5628 65.8757C59.6413 66.3881 60.4723 67.3076 60.8733 68.4324C61.2742 69.5571 61.2123 70.795 60.7011 71.8741C60.1898 72.9512 59.2716 73.781 58.1484 74.1811C57.0253 74.5812 55.7909 74.5189 54.7137 74.0078ZM58.9068 80.2776C58.4633 81.2198 56.093 86.2145 55.6117 87.2182C54.9704 88.5673 53.8203 89.6069 52.4136 90.1093C51.0069 90.6116 49.4584 90.5356 48.1077 89.8979C47.1955 89.4592 46.4964 88.7853 45.9094 88.0452C45.0193 86.9215 44.4228 83.9231 44.4228 83.9231C43.4885 84.5828 41.0977 86.0899 40.1082 86.7921C39.6749 87.0945 39.1396 87.2131 38.6192 87.1221C38.0987 87.031 37.6355 86.7376 37.3307 86.3061C37.1795 86.0926 37.0719 85.8514 37.014 85.5963C36.9561 85.3412 36.9491 85.0771 36.9934 84.8193C37.0377 84.5615 37.1323 84.3149 37.272 84.0937C37.4116 83.8725 37.5935 83.681 37.8073 83.5302C39.2307 82.5344 43.1776 79.8515 43.1776 79.8515C43.462 79.6496 43.7835 79.506 44.1236 79.4288C44.4637 79.3516 44.8157 79.3425 45.1594 79.4019C45.503 79.4613 45.8315 79.5881 46.126 79.7749C46.4205 79.9618 46.6751 80.205 46.8752 80.4907L48.5511 83.8947L51.215 78.5101L48.8873 77.8284C48.6349 77.7548 48.4001 77.6309 48.1969 77.4641C47.9938 77.2973 47.8265 77.0911 47.7053 76.8578L45.4217 72.4722C45.1836 72.0158 45.1365 71.4835 45.2908 70.9923C45.4452 70.5012 45.7883 70.0915 46.2447 69.8533C46.7011 69.6152 47.2335 69.5681 47.7246 69.7224C48.2157 69.8768 48.6255 70.2199 48.8636 70.6763L50.7652 74.3344C52.0199 74.7021 57.1219 76.1856 57.1219 76.1856C57.3981 76.2724 57.6301 76.4286 57.84 76.6101C58.4337 76.9864 58.8696 77.5666 59.0657 78.2417C59.2619 78.9167 59.2048 79.6401 58.9052 80.2761L58.9068 80.2776Z" fill="#0085FF"/>
</g>
<defs>
<clipPath id="clip0_132_572">
<rect width="101" height="101" fill="white"/>
</clipPath>
</defs>
</svg>
