<svg width="128" height="128" viewBox="0 0 128 128" fill="none" xmlns="http://www.w3.org/2000/svg">
<g clip-path="url(#clip0_24_522)">
<path d="M114.41 96.3873H100.302V95.2383C100.302 91.7609 97.5256 88.7099 94.3615 88.7099H62.7945L60.1462 59.5346C59.922 56.7774 58.1898 53.609 55.9832 51.7505L52.088 5.97564C51.9422 4.24344 51.1261 2.66792 49.7878 1.54069C48.4538 0.413454 46.7543 -0.126227 45.0286 0.0217502L17.766 2.34368C14.1798 2.65052 11.5118 5.81679 11.8143 9.4074L13.0221 23.2084C11.1789 22.2901 9.30742 22.5121 8.15407 23.7699C7.57522 24.3988 6.92238 25.5608 7.08994 27.5324L15.1025 121.667C15.3984 125.158 18.4885 127.998 21.9899 127.998H52.2816H63.9783C63.9936 128 64.011 127.998 64.0219 127.998H93.7739C97.3732 127.998 100.302 125.069 100.302 121.469V120.32H114.41C118.009 120.32 120.939 117.391 120.939 113.792V102.916C120.939 99.3142 118.009 96.3873 114.41 96.3873ZM17.6529 26.218L16.8629 17.1827L48.4473 14.4952L51.3503 48.5908L17.6529 26.218ZM18.1338 6.68289L45.3985 4.36313C45.9622 4.31526 46.5323 4.4937 46.9828 4.87017C47.4289 5.24664 47.7031 5.77109 47.7531 6.34558L48.0774 10.1582L16.4843 12.8457L16.1492 9.03528C16.0491 7.83841 16.9391 6.78299 18.1338 6.68289ZM52.2816 123.646H21.9899C20.7365 123.646 19.5439 122.551 19.4373 121.3L11.4357 27.317L52.7974 54.7775C54.2336 55.7307 55.6677 58.1658 55.8092 59.9067L61.5955 123.648L52.2816 123.646ZM95.9479 121.469C95.9479 122.668 94.973 123.646 93.7717 123.646H65.9651L63.1906 93.0622H94.3593C94.9033 93.0622 95.9479 93.9805 95.9479 95.2383V121.469ZM116.586 113.792C116.586 114.991 115.611 115.968 114.41 115.968H100.302V100.74H114.41C115.611 100.74 116.586 101.717 116.586 102.916V113.792ZM50.3623 113.137C50.3623 113.738 49.8748 114.225 49.2742 114.225H29.6869C29.0863 114.225 28.5988 113.738 28.5988 113.137C28.5988 112.536 29.0863 112.049 29.6869 112.049H49.2742C49.8748 112.049 50.3623 112.536 50.3623 113.137ZM50.3623 108.354C50.3623 108.954 49.8748 109.442 49.2742 109.442H29.6869C29.0863 109.442 28.5988 108.954 28.5988 108.354C28.5988 107.753 29.0863 107.266 29.6869 107.266H49.2742C49.8748 107.266 50.3623 107.751 50.3623 108.354ZM50.3623 103.571C50.3623 104.171 49.8748 104.659 49.2742 104.659H29.6869C29.0863 104.659 28.5988 104.171 28.5988 103.571C28.5988 102.97 29.0863 102.483 29.6869 102.483H49.2742C49.8748 102.483 50.3623 102.97 50.3623 103.571Z" fill="#0085FF"/>
</g>
<defs>
<clipPath id="clip0_24_522">
<rect width="128" height="128" fill="white"/>
</clipPath>
</defs>
</svg>
