<svg width="130" height="130" viewBox="0 0 130 130" fill="none" xmlns="http://www.w3.org/2000/svg">
<path d="M120.25 70.75H122.75V68.25V55.25V52.75H120.25H97.5H97.4996C95.9377 52.7503 94.4027 53.157 93.0457 53.9302C91.6898 54.7028 90.5581 55.8146 89.7616 57.1565C89.7609 57.1577 89.7603 57.1588 89.7596 57.16L79.235 74.7887L60.2643 32.1341L60.2642 32.1339C59.5954 30.6305 58.5273 29.3392 57.1759 28.4004C55.8245 27.4616 54.2416 26.9113 52.5993 26.8092C50.9571 26.7071 49.3182 27.0573 47.861 27.8215C46.4038 28.5857 45.184 29.7348 44.3342 31.1439L44.3321 31.1474L27.4456 59.25H9.815H7.315V61.75V74.75V77.25H9.815H32.559C34.1093 77.2576 35.6353 76.8645 36.9891 76.1089C38.3455 75.3519 39.4828 74.2567 40.2904 72.93L40.296 72.9208L40.3016 72.9115L50.8265 55.2822L69.7345 97.9283L69.7382 97.9365C70.4149 99.4481 71.4956 100.744 72.8612 101.68C74.2268 102.617 75.8244 103.159 77.4782 103.247L77.5441 103.25H77.61H77.994C79.5443 103.258 81.0703 102.865 82.4241 102.109C83.7805 101.352 84.9178 100.257 85.7254 98.93L85.7309 98.921L85.7362 98.912L102.559 70.75H120.25ZM14.6374 14.6374C22.3935 6.88136 32.9082 2.51668 43.8769 2.5H86.1231C97.0918 2.51668 107.606 6.88136 115.363 14.6374C123.119 22.3939 127.484 32.9094 127.5 43.8787V86.125C127.5 97.0983 123.141 107.622 115.382 115.382C107.622 123.141 97.0983 127.5 86.125 127.5H43.875C32.9017 127.5 22.3778 123.141 14.6185 115.382C6.85914 107.622 2.5 97.0983 2.5 86.125V43.8769C2.51668 32.9082 6.88136 22.3935 14.6374 14.6374Z" stroke="#0085FF" stroke-width="5"/>
</svg>
