<svg width="139" height="156" viewBox="0 0 139 156" fill="none" xmlns="http://www.w3.org/2000/svg">
<path fill-rule="evenodd" clip-rule="evenodd" d="M70.7779 118.941C70.7779 116.975 71.2695 113.732 71.6627 111.962C72.1542 109.505 72.744 107.735 73.6287 105.769C80.4116 90.0416 99.2857 81.6862 116.784 89.0586C128.187 93.7769 136.346 106.359 136.346 118.941C136.346 120.907 135.854 124.151 135.461 125.921C134.085 132.31 131.234 137.323 126.712 141.747C122.092 146.367 117.57 149.217 111.082 150.692C95.9434 154.329 80.3133 146.563 73.8253 132.605C72.1542 128.87 70.7779 123.168 70.7779 118.941ZM31.4569 39.6144C43.5481 42.465 38.3381 40.0076 48.8564 40.0076C55.7376 40.0076 57.1139 45.0208 58.2935 37.6484C58.5884 36.0756 58.9816 34.2079 58.9816 32.4386C58.9816 32.5369 59.0799 32.5369 59.0799 32.6352C59.0799 32.7335 59.1782 32.8318 59.1782 32.8318C60.2596 34.7977 62.7171 41.5803 63.8968 41.5803C67.3373 41.5803 70.0898 39.6144 74.0219 39.6144C79.5269 39.6144 80.1167 42.465 87.3911 40.5974C88.5707 40.3025 90.3402 39.7127 91.7164 39.6144C91.8147 43.2514 95.157 40.9905 97.7129 44.5293C99.2857 46.6919 98.3027 51.1153 96.7299 52.8847C95.157 54.6541 95.157 53.966 92.9943 54.6541C92.3062 56.5217 91.7164 59.569 91.4215 60.2571C90.8317 61.8299 88.8656 64.7788 88.1775 66.155C87.2928 67.8261 82.1811 75.7883 81.4929 76.5747C71.5644 85.8147 56.3274 87.2892 45.0226 79.1304C32.4399 70.087 33.7178 56.1285 30.3755 54.7524C28.3112 53.966 28.3112 54.8507 26.64 52.983C24.9689 51.2136 22.413 44.5293 28.5078 42.2684C30.3755 41.6786 31.3586 41.8752 31.4569 39.6144ZM67.534 13.0737C77.5608 19.8563 73.4321 29.5879 73.4321 32.4386C72.1542 32.4386 72.0559 32.3403 71.0728 32.1437C71.0728 30.4726 71.761 28.8998 71.761 24.5747C71.761 21.1342 68.6153 16.0227 66.1577 15.4329C66.6492 14.5482 67.0424 13.9584 67.534 13.0737ZM44.2362 34.6994C43.2532 34.9943 43.2532 35.0926 41.9753 35.0926C41.8769 32.8318 41.2871 31.6522 41.2871 28.2117C41.2871 20.5444 45.9074 13.5652 50.4293 10.518C51.0191 11.5009 51.5106 11.7958 51.8055 12.7788C49.3479 13.3686 46.0057 18.8733 45.0226 21.4291C42.6634 27.4253 44.2362 31.259 44.2362 34.6994ZM77.954 7.86389C83.7539 11.6975 86.8013 18.9716 86.8013 26.2457C86.8013 28.0151 86.5064 28.1134 86.5064 29.7845C85.2284 29.7845 85.1301 29.6862 84.2454 29.4896C84.2454 25.3611 84.9335 22.3138 82.7709 17.7921C81.6895 15.5312 78.9371 10.8129 76.6761 10.1248C76.971 9.24008 77.4625 8.84688 77.954 7.86389ZM52.7885 0.688091C45.2192 0.688091 38.633 1.27788 33.128 6.58601C21.5283 18.087 28.8027 29.3913 28.8027 39.3195C26.64 39.811 25.4604 40.4008 24.0842 41.7769L22.7079 43.6446C20.8402 47.38 22.3147 55.0473 27.3281 56.9149C29.6874 57.7013 28.8027 56.5217 30.4738 61.3384C33.6195 70.9716 36.8635 78.2457 46.8904 83.5539C44.2362 94.7599 44.2362 94.2684 30.7687 96.9225C26.7383 97.8072 22.5113 98.397 18.4809 99.38C11.4031 101.149 5.40665 107.342 4.03041 114.813L0 155.607L2.65417 156C2.75248 153.936 3.14569 151.773 3.34229 149.414L6.68458 115.796C8.15912 107.539 13.959 103.115 21.9215 101.543C26.0502 100.756 29.9823 99.9698 34.2093 99.0851C38.8296 98.2004 42.1719 97.9055 45.0226 95.1531C49.7412 90.2382 47.9717 87.9773 49.4463 84.8318C51.9038 85.4215 54.558 87.1909 59.6697 87.1909C64.3883 87.1909 66.7475 87.2892 71.2695 85.7164C72.3508 85.4215 72.8423 85.1267 73.727 84.8318C74.6117 86.7977 74.0219 88.7637 76.0863 92.5974C76.7744 93.7769 77.0693 93.7769 77.6591 94.6616C76.6761 96.1361 74.5134 97.8072 72.4491 101.936C68.517 109.505 69.0085 113.732 67.534 116.091C64.3883 121.104 62.9137 125.626 62.9137 132.015H65.5679C65.5679 129.558 66.3543 124.25 67.7306 121.792C68.0255 121.399 67.9272 121.497 68.1238 121.202C68.1238 128.673 72.9406 138.896 78.4455 144.008C81.6895 146.957 84.1471 148.923 88.2758 150.987C99.9738 156.786 116.489 154.919 126.221 146.17C126.614 145.875 126.81 145.679 127.204 145.285C129.366 143.418 130.644 142.042 132.414 139.584C141.163 127.198 141.163 111.274 132.61 98.6919L128.875 93.9735C128.285 93.3837 128.285 93.5803 127.794 93.0888C127.302 92.6956 127.204 92.5974 126.712 92.1059C122.19 87.5841 112.36 83.5539 105.479 83.5539C96.8282 83.5539 91.1266 84.6352 84.0488 89.3535L79.6252 92.6956C76.7744 88.4688 77.5608 88.7637 76.3812 83.5539C83.3607 79.8185 94.0757 64.7788 94.0757 57.3081C101.547 56.7183 105.577 41.9735 94.3706 39.3195C94.3706 37.4518 95.157 36.3705 95.6485 34.9943C96.2383 33.6181 96.6315 32.4386 97.2214 31.0624C99.8755 24.5747 100.072 18.775 97.0248 12.4839C92.2079 2.55577 83.2624 0 72.744 0C64.4866 0 65.6662 3.04726 58.0969 1.47448C56.2291 1.08129 54.7546 0.688091 52.7885 0.688091Z" fill="#0085FF"/>
<path fill-rule="evenodd" clip-rule="evenodd" d="M109.804 130.737C109.804 128.968 110.394 127.69 111.279 126.707C115.112 122.677 120.912 126.117 120.912 129.754V131.425C120.912 137.225 109.804 138.011 109.804 130.737ZM91.7165 124.839C95.2554 124.839 97.6146 127.985 97.6146 130.049C97.6146 139.584 83.8522 136.635 86.6047 128.575C87.2928 126.707 89.4555 124.839 91.7165 124.839ZM103.906 138.601C103.021 138.601 101.448 138.11 100.76 137.716C99.679 137.127 99.3841 136.537 98.5976 135.652C100.367 133.096 100.269 132.9 100.269 128.771C102.628 129.361 104.594 130.147 107.15 128.476C107.15 130.442 106.757 129.951 107.052 131.819C107.543 134.571 109.804 135.554 106.953 137.422C106.265 137.913 104.791 138.601 103.906 138.601ZM100.564 124.544C103.414 124.25 103.906 121.497 105.184 120.612C109.902 123.66 103.709 130.442 100.564 124.544ZM95.6486 118.941C95.6486 117.172 96.8282 115.698 98.5976 115.698C99.4824 115.698 99.5807 116.189 100.269 116.681C100.859 117.172 101.35 117.467 102.235 117.664C102.235 124.544 95.6486 122.185 95.6486 118.941ZM107.445 115.698C112.852 115.698 112.852 120.121 109.411 121.89C108.919 119.433 107.445 118.647 105.479 117.664C105.774 116.779 106.462 115.698 107.445 115.698ZM113.343 115.304C115.407 115.304 115.604 115.698 117.767 115.108C120.028 114.518 121.502 111.667 124.353 115.108C127.892 119.335 124.058 124.151 121.207 124.151C119.241 124.151 121.6 122.185 113.343 122.185C114.719 119.629 114.719 117.958 113.343 115.304ZM93.0927 118.253C93.0927 122.185 93.2893 120.219 93.6825 122.185C89.6521 122.185 89.3572 122.185 86.8013 123.856C86.1132 123.267 85.4251 122.873 84.8353 121.89C82.3777 117.86 85.4251 113.83 87.3911 114.125C88.3742 114.321 88.7674 115.009 90.4385 115.403C92.5029 115.698 92.0114 115.304 94.0757 115.304C93.3876 116.287 93.0927 116.681 93.0927 118.253ZM100.269 111.766C100.269 108.522 106.855 105.573 106.855 113.043C104.889 113.24 104.004 115.009 103.513 115.009C101.842 115.009 100.269 113.24 100.269 111.766ZM109.804 107.146C109.804 100.068 120.912 99.0851 120.912 107.44C120.912 114.518 109.804 114.321 109.804 107.146ZM91.1266 101.543H92.6995C99.0892 101.543 99.2858 112.749 92.1097 112.749C88.964 112.749 86.703 110.684 86.4081 107.637C86.2115 105.081 88.1776 101.543 91.1266 101.543ZM98.3027 100.953C98.3027 97.1191 106.364 94.2684 108.723 99.9698C109.706 102.231 107.15 102.82 107.15 106.457C102.923 105.474 104.496 105.474 100.269 106.457C100.269 103.312 98.3027 102.231 98.3027 100.953ZM102.235 94.0718C100.269 94.465 97.5163 95.8412 97.0248 97.6106H96.3367C96.2384 95.9395 94.7638 93.8752 94.3706 92.1059C93.4859 92.5974 92.8961 92.794 91.7165 93.0889L94.0757 98.9868C90.93 98.2004 89.8487 98.6919 86.8013 100.265L83.6556 96.9225L81.493 98.8885L84.9336 102.526C83.459 105.18 83.2624 106.556 83.8522 109.406L77.6592 107.146C77.3643 108.325 77.1677 108.817 76.6761 109.8C77.6592 109.996 79.3303 110.684 80.3133 111.078C81.493 111.569 82.5743 112.06 83.8522 112.355C82.8692 113.928 81.493 115.206 81.2964 117.664H77.3643V120.219H81.2964C81.8862 122.873 82.6726 123.365 83.8522 125.134L76.6761 128.083C76.9711 128.771 77.4626 130.049 77.6592 130.737C79.6252 130.246 81.9845 128.575 83.8522 128.476C83.459 129.361 83.3607 130.934 83.6556 132.212C83.7539 132.605 84.0488 133.49 84.1472 133.686C84.6387 134.767 84.5404 134.276 84.8353 135.357L81.493 138.896L83.459 140.96L87.0962 137.52C88.2759 137.913 91.2249 139.977 94.0757 138.601C93.8791 140.567 92.208 142.828 91.7165 144.794C92.5029 144.991 93.7808 145.482 94.3706 145.777L97.3197 138.601C99.1875 139.781 99.5807 140.567 102.235 141.255V145.187H104.889V141.255C107.347 141.059 108.526 139.682 110.099 138.601C110.591 140.665 112.262 143.713 112.753 145.777C113.343 145.482 114.621 144.991 115.309 144.794L113.048 138.601C115.899 139.289 117.275 139.093 119.929 137.618L123.468 140.96L125.533 138.994L122.289 135.554C123.763 132.605 124.255 131.524 123.567 128.476L129.465 130.737C129.563 130.049 130.153 128.771 130.448 128.083C128.678 127.69 126.614 126.314 124.844 126.117V125.527C126.712 125.036 127.99 122.185 128.482 120.219H132.414V117.664H128.482C128.187 114.911 126.417 113.142 124.844 111.766C126.712 111.274 128.482 110.193 130.448 109.8C129.956 108.817 129.661 108.325 129.465 107.146C127.4 107.637 125.729 108.62 123.567 109.112C124.058 108.129 123.96 106.654 123.665 105.376C123.37 103.705 122.878 103.607 122.584 102.231L125.533 98.9868L123.567 96.9225L120.323 99.9698C118.16 99.38 118.553 98.5936 114.719 98.5936C115.211 96.6276 117.472 95.2514 117.668 93.0889C116.39 92.6957 116.784 92.4008 115.309 92.1059C114.719 93.2855 111.967 97.7089 111.082 98.2987C109.706 96.2344 107.936 94.2684 104.889 94.0718V90.1399H102.235V94.0718Z" fill="#0085FF"/>
<path fill-rule="evenodd" clip-rule="evenodd" d="M40.0092 107.146C41.9752 107.637 45.3175 109.701 46.792 110.783C53.4766 115.796 57.7036 123.561 57.7036 132.015H60.2595C60.2595 124.544 57.9002 118.745 54.0664 114.026C51.2157 110.291 45.4158 105.573 40.9922 104.491C40.7956 105.278 40.3041 106.556 40.0092 107.146Z" fill="#0085FF"/>
<path fill-rule="evenodd" clip-rule="evenodd" d="M28.8027 134.964C30.0807 140.469 31.4569 141.452 31.4569 149.119V155.607H34.1111C34.1111 148.333 34.6026 140.96 31.4569 134.374C30.2773 134.473 29.8841 134.767 28.8027 134.964Z" fill="#0085FF"/>
<path fill-rule="evenodd" clip-rule="evenodd" d="M57.7037 61.6333C57.7037 63.2061 64.0934 62.6163 66.8459 62.6163V59.9622H60.6528C61.046 58.0945 61.3409 56.3251 61.8324 54.2609C62.1274 52.4915 62.9138 49.8374 62.9138 48.1664C61.3409 48.1664 61.5375 47.9698 60.2596 47.8715C59.7681 50.034 59.3749 52.2949 58.8834 54.6541C58.5885 56.3251 57.7037 59.6673 57.7037 61.6333Z" fill="#0085FF"/>
<path fill-rule="evenodd" clip-rule="evenodd" d="M40.0092 49.4443C40.3041 50.9187 40.599 50.5255 40.9922 51.8034C43.9413 51.5085 44.2362 48.1664 49.1513 48.1664C51.314 48.1664 53.7715 51.6068 56.0325 51.8034C56.3274 50.5255 56.7206 50.9187 57.0155 49.4443C53.9681 47.8715 52.0021 45.2174 48.1683 45.2174C45.5141 45.2174 42.1718 48.363 40.0092 49.4443Z" fill="#0085FF"/>
<path fill-rule="evenodd" clip-rule="evenodd" d="M66.1577 49.4443C66.5509 50.9187 66.8458 50.5255 67.1407 51.8034C70.1881 51.5085 70.483 48.1664 75.3982 48.1664C77.5608 48.1664 80.0184 51.6068 82.2794 51.8034C82.5743 50.5255 82.8692 50.9187 83.2624 49.4443C80.1167 47.8715 78.2489 45.2174 74.4151 45.2174C71.6627 45.2174 68.4187 48.363 66.1577 49.4443Z" fill="#0085FF"/>
<path fill-rule="evenodd" clip-rule="evenodd" d="M69.3034 73.1342L70.2864 70.775C69.5 69.5954 57.4088 71.2665 55.8359 71.1682C54.0665 77.7542 66.0594 72.3478 69.3034 73.1342Z" fill="#0085FF"/>
<path fill-rule="evenodd" clip-rule="evenodd" d="M64.5848 94.6617C64.5848 97.9055 70.0898 98.2987 70.0898 94.6617C70.0898 90.9263 64.5848 91.2212 64.5848 94.6617Z" fill="#0085FF"/>
<path fill-rule="evenodd" clip-rule="evenodd" d="M51.4124 98.0038C51.4124 101.543 57.0156 101.444 57.0156 98.0038C57.0156 94.5634 51.4124 94.4651 51.4124 98.0038Z" fill="#0085FF"/>
<path fill-rule="evenodd" clip-rule="evenodd" d="M84.2455 57.9962C84.2455 52.5898 76.2829 55.6371 79.4286 59.4707C80.9032 61.3384 84.2455 60.2571 84.2455 57.9962Z" fill="#0085FF"/>
<path fill-rule="evenodd" clip-rule="evenodd" d="M45.2192 70.4801C45.2192 74.707 50.4293 74.8052 50.4293 70.775C50.4293 66.9414 45.2192 68.0226 45.2192 70.4801Z" fill="#0085FF"/>
<path fill-rule="evenodd" clip-rule="evenodd" d="M28.2129 124.839C28.2129 129.164 33.7178 128.378 33.7178 125.134C33.7178 123.168 30.8671 121.399 28.9993 123.365C28.8027 123.561 28.2129 124.741 28.2129 124.839Z" fill="#0085FF"/>
<path fill-rule="evenodd" clip-rule="evenodd" d="M16.0233 111.766C16.0233 116.287 21.3317 116.287 21.3317 111.766C21.3317 109.013 16.0233 109.013 16.0233 111.766Z" fill="#0085FF"/>
<path fill-rule="evenodd" clip-rule="evenodd" d="M28.8027 109.112C28.8027 113.633 34.1111 113.633 34.1111 109.112C34.1111 106.359 28.8027 106.359 28.8027 109.112Z" fill="#0085FF"/>
<path fill-rule="evenodd" clip-rule="evenodd" d="M38.6329 60.2571C38.6329 63.8941 43.9413 63.9924 43.9413 60.2571C43.9413 56.8166 38.6329 56.8166 38.6329 60.2571Z" fill="#0085FF"/>
<path fill-rule="evenodd" clip-rule="evenodd" d="M10.8134 127.788C10.8134 131.425 16.0234 131.327 16.0234 127.788C16.0234 124.25 10.8134 124.25 10.8134 127.788Z" fill="#0085FF"/>
<path fill-rule="evenodd" clip-rule="evenodd" d="M45.9073 121.595C45.9073 125.036 51.1174 125.036 51.1174 121.595C51.1174 118.057 45.9073 118.057 45.9073 121.595Z" fill="#0085FF"/>
<path fill-rule="evenodd" clip-rule="evenodd" d="M11.7963 147.743C11.7963 151.282 17.0063 151.282 17.0063 147.743C17.0063 144.302 11.7963 144.302 11.7963 147.743Z" fill="#0085FF"/>
<path fill-rule="evenodd" clip-rule="evenodd" d="M69.5 147.743C69.5 151.282 74.71 151.282 74.71 147.743C74.71 144.302 69.5 144.302 69.5 147.743Z" fill="#0085FF"/>
<path fill-rule="evenodd" clip-rule="evenodd" d="M87.7843 48.1664C87.7843 51.7051 93.0926 51.7051 93.0926 48.1664C93.0926 44.6276 87.7843 44.6276 87.7843 48.1664Z" fill="#0085FF"/>
<path fill-rule="evenodd" clip-rule="evenodd" d="M19.6605 137.323C19.6605 140.764 24.8706 140.764 24.8706 137.323C24.8706 133.785 19.6605 133.785 19.6605 137.323Z" fill="#0085FF"/>
<path fill-rule="evenodd" clip-rule="evenodd" d="M56.3274 145.187C56.3274 148.628 61.6357 148.628 61.6357 145.187C61.6357 141.648 56.3274 141.648 56.3274 145.187Z" fill="#0085FF"/>
<path fill-rule="evenodd" clip-rule="evenodd" d="M58.9816 108.423C58.9816 111.962 64.1916 111.962 64.1916 108.423C64.1916 104.983 58.9816 104.983 58.9816 108.423Z" fill="#0085FF"/>
<path fill-rule="evenodd" clip-rule="evenodd" d="M40.599 150.397C40.599 153.936 45.9073 153.936 45.9073 150.397C45.9073 146.858 40.599 146.858 40.599 150.397Z" fill="#0085FF"/>
<path fill-rule="evenodd" clip-rule="evenodd" d="M43.2532 134.669C43.2532 138.208 48.4632 138.208 48.4632 134.669C48.4632 131.13 43.2532 131.13 43.2532 134.669Z" fill="#0085FF"/>
<path fill-rule="evenodd" clip-rule="evenodd" d="M45.9073 54.7523H51.1174V52.0983H45.9073V54.7523Z" fill="#0085FF"/>
<path fill-rule="evenodd" clip-rule="evenodd" d="M72.0559 54.7523H77.3643V52.0983H72.0559V54.7523Z" fill="#0085FF"/>
<path fill-rule="evenodd" clip-rule="evenodd" d="M43.2532 143.811H48.4632V141.255H43.2532V143.811Z" fill="#0085FF"/>
</svg>
