<svg width="119" height="119" viewBox="0 0 119 119" fill="none" xmlns="http://www.w3.org/2000/svg">
<rect x="15" y="14" width="89" height="90" rx="9" fill="#0085FF"/>
<path fill-rule="evenodd" clip-rule="evenodd" d="M50.7957 40.4848C46.7225 41.1888 43.7549 44.6398 43.269 48.7453L39.6667 79.3333H79.3334L75.7237 48.7032C75.2428 44.6175 72.3025 41.174 68.2515 40.4649C62.1776 39.4014 57.1151 39.3915 50.7957 40.4848ZM53.8724 51.1898C53.9374 50.5457 53.748 49.9017 53.3446 49.3955C52.9411 48.8892 52.3556 48.5609 51.7133 48.4806C51.0709 48.4003 50.4226 48.5744 49.907 48.9658C49.3913 49.3572 49.0492 49.9347 48.9537 50.575L46.7101 68.5192C46.6613 68.8461 46.6784 69.1794 46.7604 69.4996C46.8423 69.8198 46.9875 70.1203 47.1873 70.3836C47.3871 70.6469 47.6376 70.8675 47.9239 71.0326C48.2102 71.1977 48.5267 71.3038 48.8546 71.3448C49.1826 71.3858 49.5154 71.3608 49.8336 71.2713C50.1517 71.1818 50.4488 71.0296 50.7072 70.8236C50.9657 70.6176 51.1804 70.362 51.3386 70.0719C51.4969 69.7817 51.5955 69.4628 51.6287 69.134L53.8724 51.1898Z" fill="#DCE7F2"/>
<path fill-rule="evenodd" clip-rule="evenodd" d="M55.7168 44.8159C56.813 45.5942 57.6778 46.6551 58.2191 47.8857C58.7604 49.1163 58.958 50.4706 58.791 51.8046L56.5498 69.7488C56.3167 71.6082 55.4193 73.2197 54.1202 74.375H73.7552L70.8 49.2833C70.5472 47.1265 69.0547 45.639 67.3986 45.3489C63.2559 44.625 59.6884 44.439 55.7168 44.8159ZM75.7237 48.7032C75.2427 44.6175 72.3024 41.174 68.2515 40.4649C62.1775 39.4014 57.115 39.3915 50.7956 40.4848C46.7224 41.1888 43.7548 44.6398 43.2689 48.7453L39.6667 79.3333H79.3333L75.7237 48.7032ZM53.8723 51.1898L51.6286 69.134C51.5954 69.4628 51.4968 69.7817 51.3385 70.0719C51.1803 70.362 50.9656 70.6176 50.7071 70.8236C50.4487 71.0296 50.1516 71.1818 49.8335 71.2713C49.5153 71.3608 49.1825 71.3858 48.8545 71.3448C48.5266 71.3038 48.2101 71.1977 47.9238 71.0326C47.6375 70.8675 47.387 70.6469 47.1872 70.3836C46.9874 70.1203 46.8423 69.8198 46.7603 69.4996C46.6783 69.1794 46.6612 68.8461 46.71 68.5192L48.9536 50.575C48.9868 50.2461 49.0855 49.9273 49.2437 49.6371C49.402 49.347 49.6167 49.0914 49.8751 48.8854C50.1336 48.6794 50.4306 48.5272 50.7488 48.4377C51.0669 48.3482 51.3998 48.3232 51.7277 48.3642C52.0557 48.4051 52.3721 48.5113 52.6585 48.6764C52.9448 48.8414 53.1952 49.0621 53.395 49.3254C53.5949 49.5886 53.74 49.8892 53.822 50.2094C53.9039 50.5296 53.921 50.8629 53.8723 51.1898ZM81.8125 89.25H37.1875V84.2916H81.8125V89.25Z" fill="#DCE7F2"/>
<path d="M32.2292 59.5C32.2292 60.3354 32.2664 61.161 32.3408 61.9791H24.7917V57.0208H32.3408C32.2664 57.8389 32.2292 58.6645 32.2292 59.5ZM37.2173 43.7721C36.2612 45.1249 35.4305 46.5622 34.7357 48.066L28.2031 44.2927L30.6822 39.9988L37.2173 43.7721ZM48.0662 34.7331C46.5539 35.4347 45.1184 36.2677 43.7722 37.2172L39.999 30.6821L44.2929 28.203L48.0662 34.7331ZM59.5001 32.2291C58.6646 32.2291 57.839 32.2663 57.0209 32.3407V24.7916H61.9792V32.3407C61.1549 32.2665 60.3277 32.2292 59.5001 32.2291ZM75.2279 37.2172C73.875 36.2612 72.4378 35.4305 70.934 34.7356L74.7073 28.203L79.0012 30.6821L75.2279 37.2172ZM84.267 48.066C83.5713 46.5621 82.7398 45.1248 81.7828 43.7721L88.3179 39.9988L90.7971 44.2927L84.267 48.066ZM86.7709 59.5C86.7709 58.6645 86.7337 57.8389 86.6594 57.0208H94.2084V61.9791H86.6594C86.7337 61.161 86.7709 60.3354 86.7709 59.5Z" fill="#DCE7F2"/>
</svg>
