<svg width="122" height="122" viewBox="0 0 122 122" fill="none" xmlns="http://www.w3.org/2000/svg">
<path fill-rule="evenodd" clip-rule="evenodd" d="M20.3333 15.25C18.9851 15.25 17.6922 15.7856 16.7389 16.7389C15.7856 17.6922 15.25 18.9851 15.25 20.3333V45.75C15.25 47.0982 15.7856 48.3911 16.7389 49.3445C17.6922 50.2978 18.9851 50.8333 20.3333 50.8333H66.0833C67.4315 50.8333 68.7245 50.2978 69.6778 49.3445C70.6311 48.3911 71.1667 47.0982 71.1667 45.75V20.3333C71.1667 18.9851 70.6311 17.6922 69.6778 16.7389C68.7245 15.7856 67.4315 15.25 66.0833 15.25H20.3333ZM38.125 30.5C38.7991 30.5 39.4456 30.2322 39.9222 29.7556C40.3989 29.2789 40.6667 28.6324 40.6667 27.9583C40.6667 27.2842 40.3989 26.6378 39.9222 26.1611C39.4456 25.6844 38.7991 25.4167 38.125 25.4167C37.4509 25.4167 36.8044 25.6844 36.3278 26.1611C35.8511 26.6378 35.5833 27.2842 35.5833 27.9583C35.5833 28.6324 35.8511 29.2789 36.3278 29.7556C36.8044 30.2322 37.4509 30.5 38.125 30.5ZM30.5 27.9583C30.5 28.6324 30.2322 29.2789 29.7556 29.7556C29.2789 30.2322 28.6324 30.5 27.9583 30.5C27.2842 30.5 26.6378 30.2322 26.1611 29.7556C25.6844 29.2789 25.4167 28.6324 25.4167 27.9583C25.4167 27.2842 25.6844 26.6378 26.1611 26.1611C26.6378 25.6844 27.2842 25.4167 27.9583 25.4167C28.6324 25.4167 29.2789 25.6844 29.7556 26.1611C30.2322 26.6378 30.5 27.2842 30.5 27.9583ZM38.125 40.6667C38.7991 40.6667 39.4456 40.3989 39.9222 39.9222C40.3989 39.4456 40.6667 38.7991 40.6667 38.125C40.6667 37.4509 40.3989 36.8044 39.9222 36.3278C39.4456 35.8511 38.7991 35.5833 38.125 35.5833C37.4509 35.5833 36.8044 35.8511 36.3278 36.3278C35.8511 36.8044 35.5833 37.4509 35.5833 38.125C35.5833 38.7991 35.8511 39.4456 36.3278 39.9222C36.8044 40.3989 37.4509 40.6667 38.125 40.6667ZM30.5 38.125C30.5 38.7991 30.2322 39.4456 29.7556 39.9222C29.2789 40.3989 28.6324 40.6667 27.9583 40.6667C27.2842 40.6667 26.6378 40.3989 26.1611 39.9222C25.6844 39.4456 25.4167 38.7991 25.4167 38.125C25.4167 37.4509 25.6844 36.8044 26.1611 36.3278C26.6378 35.8511 27.2842 35.5833 27.9583 35.5833C28.6324 35.5833 29.2789 35.8511 29.7556 36.3278C30.2322 36.8044 30.5 37.4509 30.5 38.125ZM48.2917 30.5C48.9658 30.5 49.6122 30.2322 50.0889 29.7556C50.5656 29.2789 50.8333 28.6324 50.8333 27.9583C50.8333 27.2842 50.5656 26.6378 50.0889 26.1611C49.6122 25.6844 48.9658 25.4167 48.2917 25.4167C47.6176 25.4167 46.9711 25.6844 46.4944 26.1611C46.0178 26.6378 45.75 27.2842 45.75 27.9583C45.75 28.6324 46.0178 29.2789 46.4944 29.7556C46.9711 30.2322 47.6176 30.5 48.2917 30.5ZM50.8333 38.125C50.8333 38.7991 50.5656 39.4456 50.0889 39.9222C49.6122 40.3989 48.9658 40.6667 48.2917 40.6667C47.6176 40.6667 46.9711 40.3989 46.4944 39.9222C46.0178 39.4456 45.75 38.7991 45.75 38.125C45.75 37.4509 46.0178 36.8044 46.4944 36.3278C46.9711 35.8511 47.6176 35.5833 48.2917 35.5833C48.9658 35.5833 49.6122 35.8511 50.0889 36.3278C50.5656 36.8044 50.8333 37.4509 50.8333 38.125ZM58.4583 30.5C59.1324 30.5 59.7789 30.2322 60.2556 29.7556C60.7322 29.2789 61 28.6324 61 27.9583C61 27.2842 60.7322 26.6378 60.2556 26.1611C59.7789 25.6844 59.1324 25.4167 58.4583 25.4167C57.7842 25.4167 57.1378 25.6844 56.6611 26.1611C56.1844 26.6378 55.9167 27.2842 55.9167 27.9583C55.9167 28.6324 56.1844 29.2789 56.6611 29.7556C57.1378 30.2322 57.7842 30.5 58.4583 30.5ZM61 38.125C61 38.7991 60.7322 39.4456 60.2556 39.9222C59.7789 40.3989 59.1324 40.6667 58.4583 40.6667C57.7842 40.6667 57.1378 40.3989 56.6611 39.9222C56.1844 39.4456 55.9167 38.7991 55.9167 38.125C55.9167 37.4509 56.1844 36.8044 56.6611 36.3278C57.1378 35.8511 57.7842 35.5833 58.4583 35.5833C59.1324 35.5833 59.7789 35.8511 60.2556 36.3278C60.7322 36.8044 61 37.4509 61 38.125Z" fill="#0085FF"/>
<path d="M78.7917 40.6667C78.7917 38.6444 79.595 36.705 81.025 35.275C82.4549 33.845 84.3944 33.0417 86.4167 33.0417C88.4389 33.0417 90.3784 33.845 91.8084 35.275C93.2383 36.705 94.0417 38.6444 94.0417 40.6667V42.7076C96.3606 44.0459 98.2862 45.9713 99.6248 48.2901C100.963 50.6089 101.668 53.2393 101.667 55.9167V101.667H104.208C104.882 101.667 105.529 101.934 106.006 102.411C106.482 102.888 106.75 103.534 106.75 104.208C106.75 104.882 106.482 105.529 106.006 106.006C105.529 106.482 104.882 106.75 104.208 106.75H68.625C67.9509 106.75 67.3044 106.482 66.8278 106.006C66.3511 105.529 66.0833 104.882 66.0833 104.208C66.0833 103.534 66.3511 102.888 66.8278 102.411C67.3044 101.934 67.9509 101.667 68.625 101.667H71.1667V55.9167C71.1667 50.2742 74.2345 45.3434 78.7917 42.7076V40.6667ZM33.0417 70.6024C33.0417 68.4624 34.7141 66.6705 36.9609 66.2028L34.5972 61.4194L16.47 66.0071L15.25 61.0763L33.3797 56.486C34.4918 56.2074 35.6659 56.3196 36.7052 56.8036C37.7445 57.2876 38.5858 58.1141 39.0883 59.1446L40.6667 62.342L42.245 59.1446C42.7475 58.1141 43.5889 57.2876 44.6281 56.8036C45.6674 56.3196 46.8415 56.2074 47.9536 56.486L66.0833 61.0763L64.8633 66.0071L46.7362 61.4194L44.3724 66.2028C46.6193 66.6705 48.2917 68.4649 48.2917 70.5999V97.1476C48.2917 99.6435 46.0169 101.667 43.2083 101.667V106.75H38.125V101.667C35.3165 101.667 33.0417 99.6435 33.0417 97.1476V70.6024Z" fill="#0085FF"/>
</svg>
