<svg width="128" height="128" viewBox="0 0 128 128" fill="none" xmlns="http://www.w3.org/2000/svg">
<path d="M49.0987 25.3333C49.0987 26.559 48.8573 27.7727 48.3882 28.905C47.9192 30.0374 47.2317 31.0663 46.365 31.933C45.4984 32.7997 44.4695 33.4872 43.3371 33.9562C42.2047 34.4253 40.991 34.6667 39.7654 34.6667C38.5397 34.6667 37.326 34.4253 36.1937 33.9562C35.0613 33.4872 34.0324 32.7997 33.1657 31.933C32.299 31.0663 31.6115 30.0374 31.1425 28.905C30.6735 27.7727 30.432 26.559 30.432 25.3333C30.432 22.858 31.4154 20.484 33.1657 18.7337C34.9161 16.9833 37.29 16 39.7654 16C42.2407 16 44.6147 16.9833 46.365 18.7337C48.1154 20.484 49.0987 22.858 49.0987 25.3333ZM51.984 40.1093C51.6808 40.0379 51.3703 40.0021 51.0587 40.0027H35.4934C35.4703 40.0023 35.4472 40.0023 35.424 40.0027H28.4667C28.1547 40.0027 27.848 40.04 27.544 40.112C24.536 40.8293 22.448 42.5707 21.1014 45.072C19.928 47.2533 19.3574 49.9653 18.8854 52.6427L16.0614 68.6427C15.8961 69.679 16.1448 70.7388 16.7538 71.5935C17.3628 72.4482 18.2832 73.0294 19.3167 73.2116C20.3502 73.3939 21.414 73.1627 22.2786 72.5679C23.1432 71.9731 23.7394 71.0624 23.9387 70.032L26.7654 54.032C27.0934 52.1573 27.3894 50.8587 27.6987 49.9307L28.472 58.6667C28.472 63.6427 23.7094 86.3253 22.008 94.2693C21.9312 94.6242 21.9283 94.9912 21.9997 95.3472C22.0711 95.7032 22.2151 96.0407 22.4229 96.3386C22.6306 96.6364 22.8975 96.8882 23.207 97.0781C23.5165 97.2681 23.8618 97.3922 24.2214 97.4427C35.9494 99.104 43.5814 99.0507 55.3094 97.432C55.669 97.383 56.0148 97.2604 56.3249 97.0719C56.6351 96.8833 56.903 96.6327 57.1119 96.3359C57.3209 96.0391 57.4664 95.7024 57.5394 95.3468C57.6124 94.9913 57.6112 94.6245 57.536 94.2693C55.848 86.2 51.0587 62.944 51.0587 58.6693L51.832 49.9307C52.1387 50.856 52.4347 52.1573 52.7654 54.0293L55.592 70.0293C55.669 70.5593 55.8516 71.0685 56.129 71.5266C56.4064 71.9847 56.7729 72.3824 57.2069 72.6962C57.6409 73.01 58.1335 73.2334 58.6555 73.3532C59.1774 73.4731 59.7181 73.4869 60.2455 73.3938C60.7729 73.3008 61.2763 73.1028 61.7257 72.8115C62.1751 72.5203 62.5615 72.1418 62.8619 71.6985C63.1624 71.2551 63.3707 70.7559 63.4746 70.2306C63.5784 69.7052 63.5758 69.1643 63.4667 68.64L60.6454 52.64C60.1734 49.9653 59.6 47.2507 58.4267 45.0667C57.0827 42.5707 54.9947 40.8267 51.984 40.1093ZM30.0614 109.685L29 101.651C31.88 101.981 34.6267 102.197 37.328 102.299L35.2854 110.016C35.1287 110.614 34.7689 111.14 34.2676 111.502C33.7662 111.864 33.1545 112.041 32.5372 112.002C31.9199 111.963 31.3354 111.71 30.8837 111.288C30.432 110.865 30.1413 110.299 30.0614 109.685ZM44.2454 110.016L42.2187 102.36C44.9827 102.321 47.744 102.172 50.496 101.912L49.4667 109.683C49.3857 110.295 49.0949 110.86 48.6437 111.281C48.1926 111.703 47.6092 111.955 46.993 111.994C46.3768 112.034 45.766 111.858 45.265 111.497C44.7639 111.136 44.4035 110.613 44.2454 110.016ZM89.0987 18.896L108.317 38.1147L104.547 41.8853L101.099 38.4373V53.3333H93.0987V46.6667C93.0987 45.6058 92.6773 44.5884 91.9271 43.8382C91.177 43.0881 90.1596 42.6667 89.0987 42.6667C88.0378 42.6667 87.0204 43.0881 86.2703 43.8382C85.5201 44.5884 85.0987 45.6058 85.0987 46.6667V53.3333H77.0987V38.4373L73.6507 41.8853L69.88 38.1147L89.0987 18.896ZM89.0987 65.5627L113.651 90.1147L109.88 93.8853L104.789 88.7973V109.437H94.328V100.717C94.3438 100.021 94.2201 99.3275 93.9643 98.6792C93.7085 98.0308 93.3258 97.44 92.8385 96.9416C92.3512 96.4432 91.7693 96.0472 91.1268 95.7769C90.4844 95.5065 89.7944 95.3672 89.0974 95.3672C88.4004 95.3672 87.7104 95.5065 87.0679 95.7769C86.4255 96.0472 85.8435 96.4432 85.3563 96.9416C84.869 97.44 84.4862 98.0308 84.2304 98.6792C83.9746 99.3275 83.851 100.021 83.8667 100.717V109.437H73.4054V88.7973L68.3174 93.8853L64.5467 90.1147L89.0987 65.5627Z" fill="#0085FF"/>
</svg>
