<svg width="89" height="89" viewBox="0 0 89 89" fill="none" xmlns="http://www.w3.org/2000/svg">
<path d="M46.1799 35.5221C46.8095 35.3206 47.4726 35.2452 48.1313 35.3002C48.7901 35.3552 49.4315 35.5396 50.0189 35.8427C50.6063 36.1458 51.1282 36.5618 51.5547 37.0669C51.9812 37.5719 52.304 38.1561 52.5045 38.7859C52.91 40.0574 52.7942 41.4379 52.1825 42.6241C51.5708 43.8103 50.5132 44.7051 49.2421 45.1119L35.5611 49.484C34.7798 49.7337 33.9493 49.7886 33.142 49.6439C32.3346 49.4992 31.5749 49.1593 30.9289 48.6538L25.2705 44.2261L37.5566 88.416H1.76196V32.2736C1.76215 31.4851 1.91764 30.7043 2.21958 29.9758C2.52151 29.2474 2.96397 28.5855 3.52169 28.0281C4.07941 27.4706 4.74146 27.0285 5.47006 26.7269C6.19866 26.4253 6.97952 26.2701 7.76807 26.2703H16.7167C17.9933 26.2703 19.1698 26.6778 20.1377 27.4329L35.0327 39.0849L46.1799 35.5207V35.5221ZM24.3165 52.4516H18.8875V47.0157H12.4086V52.4516H6.99906V58.95H12.4086V64.3581H18.8875V58.95H24.3165V52.4516ZM13.4265 23.5725C16.2618 23.527 18.9656 22.3687 20.9546 20.3476C22.9436 18.3264 24.0583 15.6044 24.0583 12.7687C24.0583 9.93305 22.9436 7.21102 20.9546 5.18987C18.9656 3.16872 16.2618 2.01046 13.4265 1.96497C10.5615 1.96533 7.81399 3.10351 5.78801 5.12923C3.76203 7.15495 2.6235 9.90236 2.62276 12.7673C2.62239 14.1863 2.90158 15.5914 3.44438 16.9024C3.98717 18.2134 4.78293 19.4047 5.78621 20.4081C6.78949 21.4115 7.98062 22.2074 9.29157 22.7503C10.6025 23.2933 12.0076 23.5727 13.4265 23.5725ZM76.9989 23.6114C79.8674 23.6111 82.6183 22.4716 84.6468 20.4436C86.6754 18.4156 87.8155 15.665 87.8166 12.7965C87.8166 6.81546 82.9689 1.96775 76.9989 1.96775C75.5774 1.96811 74.1698 2.24852 72.8566 2.79295C71.5435 3.33738 70.3504 4.13517 69.3456 5.14075C68.3408 6.14633 67.5439 7.34001 67.0005 8.65361C66.4571 9.9672 66.1778 11.375 66.1785 12.7965C66.1789 14.2171 66.459 15.6238 67.003 16.9361C67.547 18.2484 68.3441 19.4407 69.3489 20.445C70.3537 21.4492 71.5464 22.2458 72.859 22.7891C74.1716 23.3324 75.5784 23.6118 76.9989 23.6114Z" fill="#0085FF"/>
<path d="M73.731 26.5178C69.3033 26.5178 67.2952 28.0322 65.6139 30.655L64.5265 32.7465L58.2033 30.8997L58.4703 29.1767L43.3723 25.7947L42.9495 27.6776L40.1252 27.0491L40.5451 25.1606L39.4118 24.9103L38.1157 30.6953L39.2435 30.9456L39.676 29.0571L42.5004 29.6885L42.0776 31.5811L57.1798 34.9631L57.6679 33.1915L63.7853 34.1746L48.0225 64.4902C47.733 65.0696 47.5604 65.7003 47.5146 66.3463C47.4689 66.9924 47.5509 67.6411 47.756 68.2554C47.9611 68.8698 48.2852 69.4377 48.7098 69.9267C49.1345 70.4157 49.6513 70.8163 50.2308 71.1055C51.402 71.6905 52.7575 71.7869 53.9996 71.3733C55.2418 70.9598 56.269 70.0702 56.8558 68.8999L70.0055 43.3806H72.1624V88.4173H87.6637V26.5192H73.7324L73.731 26.5178Z" fill="#0085FF"/>
</svg>
