<svg width="112" height="130" viewBox="0 0 112 130" fill="none" xmlns="http://www.w3.org/2000/svg">
<path d="M88.9301 58.0518H82.7888L87.184 62.341C92.1537 67.1908 98.0123 73.752 102.423 80.7695C106.88 87.8617 109.61 95.0282 108.94 101.214C108.413 106.074 105.872 109.992 101.768 112.362C95.5868 115.93 88.7949 114.572 82.868 109.219L78.6923 105.447V111.074V125.667C78.6923 126.679 77.8713 127.5 76.8589 127.5C75.8464 127.5 75.0255 126.679 75.0255 125.667V99.4282V98.796L74.7249 98.2398C74.5976 98.0041 74.4707 97.7652 74.3431 97.523L71.9534 92.986L69.8509 97.663C67.482 102.933 62.1911 106.6 56.0695 106.6C49.9479 106.6 44.6571 102.933 42.2884 97.6633L40.187 92.9882L37.7967 97.5225C37.6677 97.767 37.5419 98.0044 37.4153 98.238L37.1134 98.7952V99.4289V125.667C37.1134 126.679 36.2924 127.5 35.28 127.5C34.2674 127.5 33.4465 126.679 33.4465 125.667V111.074V105.448L29.271 109.218C23.3519 114.563 16.5604 115.935 10.3709 112.361L10.3709 112.361C6.36284 110.048 4.26436 107.103 3.41765 103.805C2.54895 100.423 2.93108 96.3963 4.43538 91.9082C7.45535 82.8982 14.7267 72.8346 23.027 64.2732C23.6387 63.6427 24.2829 62.9943 24.953 62.3401L29.3455 58.0513H23.2065H13.2828C12.2702 58.0513 11.4494 57.2305 11.4494 56.2179C11.4494 55.2054 12.2703 54.3845 13.2828 54.3845H34.0904H34.7615L35.3424 54.0484C35.9517 53.6959 36.5489 53.3805 37.1316 53.1065L42.3459 50.654L36.9927 48.5217L25.2947 43.862L25.2946 43.8619C24.5976 43.5844 24.1399 42.9096 24.1399 42.1589V11.4199C24.1399 10.4073 24.9607 9.58652 25.9733 9.58652C26.9858 9.58652 27.8067 10.4075 27.8067 11.4199V39.2209V40.9161L29.3815 41.5434L42.5821 46.8018L45.4402 42.8937C43.4921 40.519 42.3246 37.491 42.3246 34.192C42.3246 27.8915 46.5953 22.5585 52.4035 20.9484L54.2356 20.4405V18.5392V4.33342C54.2356 3.32081 55.0564 2.5 56.069 2.5C57.0817 2.5 57.9022 3.32079 57.902 4.33289V4.33342V18.539V20.4402L59.7341 20.9481C65.5425 22.5582 69.8129 27.8912 69.8129 34.1918C69.8129 37.4909 68.6458 40.5188 66.6976 42.8933L69.5555 46.8016L82.756 41.5432L84.3309 40.9158V39.2206V11.4199C84.3309 10.4073 85.1517 9.58652 86.1643 9.58652C87.1768 9.58652 87.9977 10.4075 87.9977 11.4199V42.1589C87.9977 42.9094 87.5402 43.5842 86.8428 43.862L86.8428 43.862L75.1651 48.5141L69.8031 50.6502L75.0291 53.1002C75.6033 53.3694 76.2039 53.6852 76.8311 54.0484L77.4123 54.385H78.084H98.855C99.8676 54.385 100.688 55.2058 100.688 56.2184C100.688 57.2309 99.8675 58.0518 98.855 58.0518H88.9301ZM12.2041 109.186L12.2041 109.186C14.7991 110.684 17.4937 111.039 20.1201 110.391C22.6685 109.761 24.971 108.236 27.003 106.292C31.0439 102.428 34.5449 96.4003 37.3151 90.0727C40.1074 83.6948 42.2622 76.7678 43.5078 70.8956C44.1303 67.961 44.5365 65.2393 44.6713 62.9488C44.7993 60.7749 44.7127 58.6057 44.0478 57.0343L43.3353 55.3503L41.5146 55.5191C39.8189 55.6764 37.8962 56.6851 36.1146 57.8521C34.2197 59.0934 32.0778 60.7927 29.8539 62.7897C25.4029 66.7865 20.4625 72.1211 16.3075 77.7436C12.1851 83.322 8.67805 89.394 7.32608 94.8504C6.64635 97.5938 6.46494 100.364 7.18974 102.899C7.93702 105.512 9.59565 107.68 12.2041 109.186ZM56.0914 44.2691L56.0987 44.2691C61.6441 44.2529 66.1466 39.7412 66.1466 34.1918C66.1466 28.6328 61.6283 24.1142 56.069 24.1142C50.5103 24.1142 45.9916 28.6327 45.991 34.1915V34.1918C45.991 39.7412 50.4938 44.2529 56.0389 44.2691H56.0462L56.0688 44.269L56.0914 44.2691ZM44.7484 80.4855L44.6323 80.8531V81.2386V91.4967C44.6323 97.8054 49.7605 102.934 56.069 102.934C62.3778 102.934 67.5064 97.8052 67.506 91.4965L67.5059 88.9967H67.5058V81.2383V80.8527L67.3895 80.4849C66.2422 76.8549 64.8233 71.7849 64.1458 66.8446C63.4478 61.7544 63.6325 57.4194 65.0836 54.8259L65.9286 53.3158L64.8128 51.9932C62.6615 49.4431 59.4764 47.9428 56.0928 47.9357H56.0876C56.0812 47.9357 56.075 47.9357 56.0691 47.9358C56.0631 47.9357 56.0569 47.9357 56.0505 47.9357L56.0453 47.9357C52.6274 47.9428 49.458 49.4701 47.327 51.995L46.2109 53.3174L47.0554 54.8277C48.5028 57.416 48.6881 61.7466 47.9913 66.8358C47.315 71.775 45.8977 76.8473 44.7484 80.4855ZM99.9343 109.186L99.9346 109.186C102.548 107.677 104.213 105.507 104.963 102.892C105.691 100.354 105.51 97.5822 104.829 94.8382C103.474 89.381 99.9579 83.3124 95.8279 77.7386C91.6649 72.1201 86.7173 66.7903 82.2663 62.795C80.0422 60.7987 77.9026 59.0998 76.0129 57.8575C74.2371 56.6901 72.3233 55.6789 70.641 55.5134L68.8234 55.3345L68.1004 57.0117C67.437 58.5508 67.3636 60.7048 67.4933 62.8388C67.6308 65.1023 68.0348 67.8085 68.6521 70.7361C69.8874 76.5946 72.0205 83.542 74.7937 89.9508C77.5445 96.3081 81.0285 102.379 85.0694 106.272C87.1017 108.231 89.4097 109.769 91.9711 110.403C94.6108 111.056 97.3204 110.695 99.9343 109.186Z" stroke="#0085FF" stroke-width="5"/>
</svg>
