<svg width="154" height="154" viewBox="0 0 154 154" fill="none" xmlns="http://www.w3.org/2000/svg">
<g clip-path="url(#clip0_24_515)">
<path d="M12.859 105.116H12.8618C14.3406 105.113 15.8053 105.402 17.1724 105.965C18.5394 106.529 19.7818 107.357 20.8285 108.402C21.8753 109.446 22.7057 110.687 23.2725 112.053C23.8392 113.419 24.131 114.883 24.1313 116.361L12.859 105.116ZM12.859 105.116C6.63286 105.116 1.57455 110.139 1.57455 116.361C1.57455 122.557 6.63434 127.603 12.859 127.603C19.0841 127.603 24.1312 122.561 24.1313 116.362L12.859 105.116ZM79.8212 44.7553L79.8235 44.7553C83.1824 44.7576 86.4048 43.4261 88.7823 41.0534C91.1599 38.6807 92.498 35.4611 92.5025 32.1021C92.5014 25.1217 86.8291 19.4578 79.8225 19.4578L79.8205 19.4578C78.1576 19.4556 76.5106 19.781 74.9735 20.4154C73.4364 21.0499 72.0394 21.981 70.8623 23.1555C69.6852 24.33 68.751 25.725 68.1132 27.2606C67.4755 28.7958 67.1465 30.4415 67.1449 32.1039C67.1486 35.4622 68.486 38.6816 70.8629 41.054C73.2401 43.4268 76.4625 44.7582 79.8212 44.7553ZM36.6231 143.421H36.0018L35.9867 143.406C31.2994 143.218 27.9199 140.968 25.2736 138.908C24.7944 138.535 24.3535 138.18 23.9372 137.845C23.1048 137.176 22.371 136.585 21.6271 136.086C20.539 135.356 19.713 135.03 18.9781 135.03H5.18544C3.54942 135.03 2.80138 135.688 2.41283 136.229C2.19649 136.53 2.06477 136.838 1.98831 137.073C1.955 137.175 1.93373 137.259 1.92107 137.315V148.713V148.756L1.91916 148.789L1.91914 148.789L1.91907 148.791L1.9189 148.794L1.91876 148.797L1.91869 148.798L1.91866 148.806C1.91823 148.826 1.91779 148.863 1.91872 148.913C1.92058 149.015 1.92786 149.171 1.95059 149.362C1.99698 149.752 2.10262 150.245 2.32539 150.717C2.54376 151.18 2.86436 151.604 3.34608 151.918C3.82372 152.231 4.55812 152.5 5.7124 152.5H147.241C148.377 152.5 149.1 152.227 149.572 151.91C150.051 151.588 150.375 151.15 150.597 150.667C150.824 150.176 150.931 149.663 150.979 149.258C151.002 149.06 151.01 148.898 151.012 148.791C151.013 148.738 151.013 148.699 151.013 148.678L151.013 148.668L151.013 148.667L151.012 148.666L151.012 148.663L151.012 148.66L151.012 148.659L151.011 148.628V148.588V144.423V144.325L151.02 144.257C151.02 144.256 151.02 144.256 151.02 144.256C151.02 144.238 151.021 144.202 151.017 144.154C151.008 144.05 150.984 143.94 150.937 143.848C150.9 143.774 150.84 143.693 150.708 143.619C150.565 143.538 150.255 143.421 149.654 143.421H36.6231ZM65.8762 92.4588L62.327 84.0914L62.3186 104.613H79.4018L81.4928 102.538L72.3204 99.1363L72.3193 99.1358C70.8295 98.582 69.4838 97.6994 68.3822 96.5537C67.3387 95.4683 66.5397 94.1732 66.0377 92.7557C65.9867 92.6796 65.9299 92.583 65.8807 92.4694L65.8762 92.4588Z" stroke="#0085FF" stroke-width="3"/>
<path d="M39.8018 114.596L39.8042 114.596L79.5073 114.596H80.1182L80.5552 114.169L89.4496 105.485L95.2238 107.612L95.2369 107.617L95.2369 107.617C98.7287 108.866 102.666 108.196 105.686 106.177L97.4263 118.682L96.027 120.801L98.5578 121.004L146.931 124.89C148.209 125.207 149.332 125.972 150.095 127.048C150.877 128.151 151.225 129.504 151.073 130.848C150.921 132.192 150.278 133.432 149.269 134.333C148.26 135.233 146.954 135.73 145.602 135.728H145.6L93.5705 135.735C93.9877 134.541 94.2058 133.28 94.2104 132.003L94.2104 131.996C94.2082 128.936 92.9917 126.002 90.8279 123.838C88.6642 121.675 85.7302 120.458 82.6702 120.456H82.6691H61.0572L43.5686 116.804L42.1006 116.497L41.7937 117.965L40.8144 122.65L40.5074 124.119L41.976 124.425L60.1023 128.21L60.254 128.242H60.4089H82.6715H82.6791L82.6867 128.242C83.6804 128.232 84.6374 128.617 85.3472 129.313C86.057 130.008 86.4614 130.957 86.4714 131.951C86.4814 132.945 86.0963 133.902 85.4007 134.612C84.7067 135.32 83.7604 135.724 82.7691 135.736C82.7669 135.736 82.7646 135.736 82.7623 135.736L39.7135 135.74C36.9211 135.727 34.2475 134.609 32.2771 132.63C30.306 130.651 29.199 127.972 29.1983 125.178L39.8018 114.596ZM39.8018 114.596C38.4088 114.594 37.0306 114.864 35.7458 115.395C34.4596 115.925 33.2906 116.705 32.3058 117.688C31.321 118.671 30.5396 119.838 30.0064 121.124C29.4733 122.409 29.1987 123.786 29.1983 125.178L39.8018 114.596ZM109.961 100.892C109.56 101.955 108.994 102.927 108.301 103.79H131.754C134.829 103.79 137.267 101.406 137.268 98.4032C137.266 97.6825 137.122 96.9692 136.844 96.3041C136.566 95.6383 136.16 95.0339 135.648 94.5252C135.137 94.0166 134.53 93.6137 133.863 93.3396C133.195 93.0655 132.48 92.9256 131.759 92.9279L131.752 92.9278L131.754 91.4278C131.752 92.9278 131.752 92.9278 131.752 92.9278L131.751 92.9278L131.748 92.9278L131.735 92.9278L131.685 92.9277L131.491 92.9274L130.751 92.9264L128.105 92.9228C125.911 92.9199 122.978 92.9166 120.019 92.9143C117.061 92.9121 114.077 92.9109 111.783 92.9126C111.184 92.9131 110.633 92.9137 110.142 92.9145C111.05 95.4534 110.881 98.325 109.97 100.868L109.966 100.88L109.961 100.892Z" stroke="#0085FF" stroke-width="3"/>
<path d="M85.0895 79.2381L97.8444 83.9352V70.4887V66.6293L100.451 69.4757L115.046 85.4155L128.012 85.4027L125.631 82.7931C122.824 79.7167 119.071 75.6046 115.29 71.4621C107.782 63.2368 100.191 54.9272 99.6176 54.3191C98.6256 53.341 96.1731 51.5139 91.31 51.5139H72.1827C67.3607 51.5139 64.6331 53.8585 63.2642 56.7695C61.8406 59.7968 61.8825 63.4701 62.8392 65.8915L72.8315 90.1258C73.0548 90.6319 73.3772 91.0882 73.7798 91.4676C74.186 91.8504 74.6653 92.1471 75.189 92.3399L75.1891 92.3399L97.1004 100.408L97.7303 100.64C98.5677 100.871 99.4627 100.828 100.281 100.508C101.282 100.118 102.087 99.3472 102.519 98.3645L102.52 98.3641C102.734 97.8771 102.851 97.3526 102.862 96.8206C102.873 96.2886 102.78 95.7596 102.586 95.2639C102.393 94.7682 102.103 94.3157 101.734 93.9321C101.374 93.5573 100.944 93.2556 100.469 93.0436L80.2939 85.4691L79.688 85.2416L79.4378 84.6447L73.1912 69.7452L72.5856 68.3009L74.0547 67.7582L78.1261 66.2543L79.4772 65.7552L80.0307 67.0849L85.0895 79.2381Z" stroke="#0085FF" stroke-width="3"/>
</g>
<defs>
<clipPath id="clip0_24_515">
<rect width="154" height="154" fill="white" transform="matrix(-1 0 0 1 154 0)"/>
</clipPath>
</defs>
</svg>
