<svg width="95" height="78" viewBox="0 0 95 78" fill="none" xmlns="http://www.w3.org/2000/svg">
<path d="M75.583 78L93.6474 59.358C94.1791 58.81 94.4781 58.0665 94.4788 57.291V31.6875C94.4788 29.7481 93.7322 27.8881 92.4034 26.5168C91.0745 25.1454 89.2722 24.375 87.3929 24.375C85.5136 24.375 83.7112 25.1454 82.3824 26.5168C81.0535 27.8881 80.307 29.7481 80.307 31.6875V53.625" fill="#0085FF"/>
<path d="M75.5831 58.5L79.6362 54.3173C79.85 54.0985 80.0195 53.8379 80.1346 53.5508C80.2498 53.2637 80.3084 52.9558 80.307 52.6451C80.3037 52.2073 80.1839 51.7789 79.9606 51.4066C79.7374 51.0344 79.4192 50.7326 79.041 50.5343L76.9483 49.4569C75.1754 48.5421 73.1685 48.2259 71.2118 48.5531C69.2551 48.8803 67.4477 49.8343 66.0455 51.2801L61.8175 55.6432C60.0456 57.4713 59.0498 59.9508 59.0493 62.5365V78M18.8958 78L0.831415 59.358C0.299716 58.81 0.000661549 58.0665 0 57.291V31.6875C0 29.7481 0.74655 27.8881 2.07542 26.5168C3.40428 25.1454 5.20661 24.375 7.08592 24.375C8.96522 24.375 10.7675 25.1454 12.0964 26.5168C13.4253 27.8881 14.1718 29.7481 14.1718 31.6875V53.625" fill="#0085FF"/>
<path d="M18.8956 58.5L14.8424 54.3172C14.4192 53.8694 14.179 53.2707 14.1716 52.6451C14.1716 51.753 14.6629 50.9389 15.4376 50.5343L17.5304 49.4569C19.3033 48.5421 21.3102 48.2259 23.2668 48.5531C25.2235 48.8803 27.0309 49.8343 28.4332 51.2801L32.6611 55.6432C34.4331 57.4713 35.4288 59.9508 35.4294 62.5365V78M55.1141 39H39.3644V27.6266H28.3435V11.3734H39.3644V0H55.1141V11.3734H66.135V27.6266H55.1141V39Z" fill="#0085FF"/>
</svg>
