<svg width="110" height="110" viewBox="0 0 110 110" fill="none" xmlns="http://www.w3.org/2000/svg">
<path d="M5.47249 7.39749C5.42772 7.31667 5.3994 7.22779 5.38917 7.13596C5.37894 7.04414 5.38701 6.9512 5.41289 6.86251C5.43878 6.77382 5.48198 6.69113 5.54 6.61923C5.59802 6.54733 5.66971 6.48763 5.75093 6.44359L10.8556 3.66265C10.9365 3.61805 11.0255 3.58996 11.1173 3.58C11.2091 3.57004 11.302 3.57841 11.3906 3.60463C11.4792 3.63085 11.5617 3.6744 11.6333 3.73274C11.7049 3.79109 11.7642 3.86308 11.8078 3.94453L13.8548 7.67937C21.5944 5.35906 30.1692 8.65906 34.1962 16.0342L24.3048 21.4345C25.0905 22.8752 25.2716 24.569 24.8084 26.1432C24.3453 27.7175 23.2757 29.0433 21.835 29.8289C20.3943 30.6145 18.7005 30.7957 17.1263 30.3325C15.552 29.8693 14.2263 28.7997 13.4406 27.3591L3.54577 32.7525C-0.484697 25.3808 1.3664 16.3848 7.51608 11.1341L5.47249 7.39749ZM75.1627 74.6728H108.453V109.086H75.1627V74.6728ZM71.347 91.8723H44.4606C42.2074 91.8719 40.0464 90.977 38.4525 89.3844C36.8585 87.7917 35.962 85.6315 35.9597 83.3783C35.961 81.1249 36.8574 78.9643 38.4516 77.3717C40.0458 75.7792 42.2072 74.885 44.4606 74.8859H71.347V91.8723ZM13.3787 98.7628C13.3787 96.8636 14.917 95.3219 16.818 95.3219H71.3453V109.082H13.3787V98.7611V98.7628ZM34.0553 81.6183C34.0526 84.3397 32.9692 86.9486 31.0435 88.8714C29.1177 90.7943 26.5072 91.8737 23.7858 91.8723C22.4381 91.8735 21.1033 91.6091 19.8578 91.0944C18.6122 90.5797 17.4802 89.8247 16.5265 88.8726C15.5727 87.9204 14.8158 86.7897 14.299 85.545C13.7822 84.3003 13.5156 82.966 13.5145 81.6183C13.5145 75.9584 18.1122 71.3694 23.7858 71.3694C29.4559 71.3694 34.0553 75.9584 34.0553 81.6183ZM90.1897 52.9031L84.413 36.4564C83.2923 33.3558 81.1405 30.9358 75.0664 30.9358H48.3983C42.3259 30.9358 40.1706 33.3558 39.0551 36.4564L33.2801 52.9031C32.8487 53.9653 32.6253 56.3526 34.9748 57.9511L48.5547 66.8989C49.507 67.5268 50.6693 67.7514 51.787 67.5236C52.9047 67.2959 53.8864 66.6342 54.517 65.6837C54.8281 65.2119 55.0431 64.6835 55.1498 64.1285C55.2566 63.5736 55.2529 63.0031 55.1391 62.4496C55.0253 61.896 54.8036 61.3703 54.4866 60.9025C54.1696 60.4347 53.7635 60.034 53.2916 59.7231L42.5133 52.6195L45.5469 44.2509H49.7458L47.2862 51.04L55.4692 56.4334C56.375 57.0266 57.154 57.7938 57.7609 58.6904C58.3678 59.5871 58.7906 60.5954 59.0047 61.6567C59.2269 62.7176 59.2363 63.8121 59.0321 64.8766C58.8279 65.9412 58.4143 66.9546 57.8153 67.858C57.3351 68.5742 56.7459 69.2109 56.0691 69.7451H67.3991C66.7234 69.2091 66.1339 68.5726 65.6511 67.858C65.0524 66.9544 64.6387 65.9411 64.4339 64.8767C64.2292 63.8123 64.2375 62.7179 64.4583 61.6567C64.6737 60.5956 65.0973 59.5877 65.7044 58.6912C66.3115 57.7947 67.0902 57.0274 67.9955 56.4334L76.1836 51.04L73.7137 44.2509H77.9161L80.9566 52.6195L70.1731 59.7231C68.1914 61.0294 67.638 63.7055 68.9494 65.6837C70.2608 67.662 72.9317 68.2086 74.9134 66.8989L88.4916 57.9511C90.8428 56.3509 90.6194 53.9653 90.1897 52.9031ZM64.3861 14.8397C64.0616 15.544 63.542 16.1406 62.8889 16.5589C62.2358 16.9771 61.4766 17.1994 60.7011 17.1995C59.9244 17.1998 59.1638 16.9777 58.5093 16.5595C57.8548 16.1414 57.3337 15.5446 57.0075 14.8397H49.5687C49.4484 15.4928 49.378 16.1614 49.378 16.8506C49.3802 19.8622 50.5785 22.7496 52.7094 24.8779C54.8402 27.0061 57.729 28.2009 60.7406 28.1995C62.232 28.2007 63.709 27.908 65.0873 27.3382C66.4656 26.7685 67.7182 25.9328 68.7735 24.879C69.8288 23.8251 70.6662 22.5737 71.2378 21.1962C71.8094 19.8187 72.1041 18.342 72.105 16.8506C72.105 16.1597 72.0311 15.4928 71.9159 14.8397H64.3861ZM56.7566 12.1602C56.9784 11.282 57.4868 10.503 58.2012 9.9464C58.9157 9.38977 59.7954 9.08736 60.7011 9.08703C62.602 9.08703 64.2056 10.4002 64.6387 12.1602H71.0841C70.1818 10.174 68.7268 8.48971 66.8929 7.30837C65.059 6.12702 62.9238 5.49863 60.7423 5.49828C58.561 5.49906 56.4259 6.12762 54.5921 7.30891C52.7583 8.4902 51.3032 10.1743 50.4006 12.1602H56.7566Z" fill="#0085FF"/>
</svg>
