<svg width="173" height="173" viewBox="0 0 173 173" fill="none" xmlns="http://www.w3.org/2000/svg">
<path fill-rule="evenodd" clip-rule="evenodd" d="M66.2857 52.9351C64.9319 51.5414 62.9965 50.4583 59.5578 50.4583C58.4109 50.4583 56.7591 50.9413 54.5303 52.8147C52.2781 54.7073 49.8503 57.6901 47.3872 61.7704C42.4668 69.9212 38.1267 81.2376 34.864 93.207C31.6138 105.131 29.5562 117.246 28.9912 126.797C28.7072 131.597 28.8167 135.494 29.2379 138.287C29.4482 139.682 29.707 140.598 29.9204 141.131C29.9423 141.186 29.9624 141.233 29.9803 141.273C33.4383 143.904 39.3427 144.957 46.6772 143.534C54.096 142.096 61.3699 138.384 65.9764 133.791C67.5752 132.196 69.0061 129.565 70.0747 125.641C71.1315 121.762 71.6973 117.131 71.9377 112.084C72.1767 107.065 72.0851 101.875 71.9237 96.9189C71.8793 95.5594 71.8289 94.1956 71.7788 92.852C71.6523 89.4396 71.5304 86.1598 71.5304 83.4206C71.5304 82.4911 71.5395 81.5068 71.5492 80.4796C71.604 74.5421 71.6721 67.1813 70.0686 60.7839C69.1524 57.1296 67.8477 54.5433 66.2857 52.9351ZM78.759 80.7344C78.8952 68.0164 79.1605 43.25 59.5578 43.25C32.7047 43.25 13.5236 136.982 25.0322 146.546C36.5408 156.11 59.5578 150.372 71.0666 138.894C80.3581 129.628 79.554 107.976 78.977 92.4325C78.8527 89.0831 78.7388 86.0174 78.7388 83.4206C78.7388 82.6064 78.7485 81.7057 78.759 80.7344Z" fill="#0085FF"/>
<path fill-rule="evenodd" clip-rule="evenodd" d="M106.714 52.9351C108.068 51.5414 110.003 50.4583 113.442 50.4583C114.589 50.4583 116.241 50.9413 118.47 52.8147C120.722 54.7073 123.15 57.6901 125.613 61.7704C130.533 69.9212 134.873 81.2376 138.136 93.207C141.386 105.131 143.444 117.246 144.009 126.797C144.293 131.597 144.183 135.494 143.762 138.287C143.552 139.682 143.293 140.598 143.08 141.131C143.058 141.186 143.037 141.233 143.02 141.273C139.562 143.904 133.657 144.957 126.323 143.534C118.904 142.096 111.63 138.384 107.024 133.791C105.425 132.196 103.994 129.565 102.925 125.641C101.869 121.762 101.303 117.131 101.062 112.084C100.823 107.065 100.915 101.875 101.076 96.9189C101.121 95.5594 101.171 94.1956 101.221 92.852C101.348 89.4396 101.47 86.1598 101.47 83.4206C101.47 82.4911 101.461 81.5068 101.451 80.4796C101.396 74.5421 101.328 67.1813 102.931 60.7839C103.848 57.1296 105.152 54.5433 106.714 52.9351ZM94.241 80.7344C94.1048 68.0164 93.8395 43.25 113.442 43.25C140.295 43.25 159.476 136.982 147.968 146.546C136.459 156.11 113.442 150.372 101.933 138.894C92.6418 129.628 93.4459 107.976 94.023 92.4325C94.1473 89.0831 94.2612 86.0174 94.2612 83.4206C94.2612 82.6064 94.2515 81.7057 94.241 80.7344Z" fill="#0085FF"/>
<path fill-rule="evenodd" clip-rule="evenodd" d="M82.8958 21.6255C82.8958 21.6251 82.8958 21.625 86.5 21.625C90.1042 21.625 90.1042 21.6251 90.1042 21.6255V73.8854C90.1042 81.4625 86.7307 85.8076 82.9095 88.0365C81.1168 89.082 79.3558 89.5899 78.0648 89.8407C77.4121 89.9676 76.8585 90.0332 76.4512 90.067C76.2469 90.084 76.0775 90.0934 75.9488 90.0984C75.8843 90.1009 75.8299 90.1024 75.7863 90.1031L75.7286 90.1038L75.7059 90.1042H75.6962H75.6915C75.6893 90.1042 75.6875 90.1042 75.6875 86.5C75.6875 82.8958 75.6854 82.8958 75.6832 82.8958H75.6727H75.6619L75.6504 82.8962C75.6504 82.8962 75.6562 82.8958 75.6688 82.8955C75.6983 82.8944 75.7614 82.8911 75.8526 82.8836C76.0368 82.8684 76.3276 82.8353 76.6887 82.765C77.4251 82.6219 78.3672 82.3411 79.2776 81.8099C80.8627 80.8851 82.8958 78.923 82.8958 73.8854V21.6255Z" fill="#0085FF"/>
<path fill-rule="evenodd" clip-rule="evenodd" d="M90.1042 21.6255C90.1042 21.6251 90.1042 21.625 86.5 21.625C82.8959 21.625 82.8959 21.6251 82.8959 21.6255V73.8854C82.8959 81.4625 86.2694 85.8076 90.0905 88.0365C91.8832 89.082 93.6442 89.5899 94.9352 89.8407C95.5879 89.9676 96.1415 90.0332 96.5488 90.067C96.7532 90.084 96.9226 90.0934 97.0512 90.0984C97.1158 90.1009 97.1702 90.1024 97.2138 90.1031L97.2715 90.1038L97.2942 90.1042H97.3039H97.3086C97.3107 90.1042 97.3125 90.1042 97.3125 86.5C97.3125 82.8958 97.3147 82.8958 97.3169 82.8958H97.3273H97.3381L97.3497 82.8962C97.3497 82.8962 97.3439 82.8958 97.3313 82.8955C97.3017 82.8944 97.2387 82.8911 97.1475 82.8836C96.9633 82.8684 96.6724 82.8353 96.3113 82.765C95.575 82.6219 94.6328 82.3411 93.7224 81.8099C92.1373 80.8851 90.1042 78.923 90.1042 73.8854V21.6255Z" fill="#0085FF"/>
<path fill-rule="evenodd" clip-rule="evenodd" d="M120.74 68.4792C121.735 68.4792 122.542 67.6722 122.542 66.6771C122.542 65.682 121.735 64.875 120.74 64.875C119.744 64.875 118.937 65.682 118.937 66.6771C118.937 67.6722 119.744 68.4792 120.74 68.4792ZM120.74 75.6875C125.716 75.6875 129.75 71.6534 129.75 66.6771C129.75 61.7008 125.716 57.6667 120.74 57.6667C115.763 57.6667 111.729 61.7008 111.729 66.6771C111.729 71.6534 115.763 75.6875 120.74 75.6875Z" fill="#0085FF"/>
<path fill-rule="evenodd" clip-rule="evenodd" d="M117.135 111.729C118.131 111.729 118.938 110.922 118.938 109.927C118.938 108.932 118.131 108.125 117.135 108.125C116.14 108.125 115.333 108.932 115.333 109.927C115.333 110.922 116.14 111.729 117.135 111.729ZM117.135 118.938C122.112 118.938 126.146 114.903 126.146 109.927C126.146 104.951 122.112 100.917 117.135 100.917C112.159 100.917 108.125 104.951 108.125 109.927C108.125 114.903 112.159 118.938 117.135 118.938Z" fill="#0085FF"/>
<path fill-rule="evenodd" clip-rule="evenodd" d="M138.76 104.521C139.756 104.521 140.562 103.714 140.562 102.719C140.562 101.724 139.756 100.917 138.76 100.917C137.765 100.917 136.958 101.724 136.958 102.719C136.958 103.714 137.765 104.521 138.76 104.521ZM138.76 111.729C143.737 111.729 147.771 107.695 147.771 102.719C147.771 97.7425 143.737 93.7083 138.76 93.7083C133.784 93.7083 129.75 97.7425 129.75 102.719C129.75 107.695 133.784 111.729 138.76 111.729Z" fill="#0085FF"/>
<path fill-rule="evenodd" clip-rule="evenodd" d="M111.729 90.1042C113.72 90.1042 115.333 88.4906 115.333 86.5C115.333 84.5094 113.72 82.8958 111.729 82.8958C109.739 82.8958 108.125 84.5094 108.125 86.5C108.125 88.4906 109.739 90.1042 111.729 90.1042ZM111.729 97.3125C117.701 97.3125 122.542 92.4717 122.542 86.5C122.542 80.5283 117.701 75.6875 111.729 75.6875C105.757 75.6875 100.917 80.5283 100.917 86.5C100.917 92.4717 105.757 97.3125 111.729 97.3125Z" fill="#0085FF"/>
</svg>
